<?xml version="1.0" encoding="UTF-8"?>
<svg version="1.1" xmlns="http://www.w3.org/2000/svg" width="134" height="134">
<path d="M0 0 C0.71311844 -0.0049649 1.42623688 -0.00992981 2.16096497 -0.01504517 C4.50559479 -0.02957334 6.85015689 -0.03645447 9.19482422 -0.04199219 C10.40526712 -0.04623325 10.40526712 -0.04623325 11.64016342 -0.05056 C15.91392083 -0.06551776 20.1876448 -0.07476771 24.46142578 -0.07910156 C28.8455712 -0.08456921 33.22940339 -0.1085708 37.613451 -0.13707352 C41.01096447 -0.15582958 44.40840459 -0.16091242 47.80596542 -0.16243744 C49.42047709 -0.16543728 51.0349883 -0.17337391 52.64944839 -0.18662262 C76.65084869 -0.36946668 76.65084869 -0.36946668 85.87841797 7.43847656 C95.80493191 17.23174871 97.6586779 28.87663455 97.8147583 42.39125061 C97.82113312 43.70240089 97.82113312 43.70240089 97.82763672 45.04003906 C97.83333679 45.96977036 97.83903687 46.89950165 97.84490967 47.85740662 C97.85431074 49.81809367 97.86087405 51.77879618 97.86474609 53.73950195 C97.87440455 56.69088437 97.9054558 59.6415553 97.93701172 62.59277344 C98.10967529 93.46215893 98.10967529 93.46215893 88.31201172 104.84863281 C78.52283137 113.27188102 70.29679894 114.51035535 57.57763672 114.46386719 C45.06779296 114.74818182 35.91102829 122.46579941 26.04052734 129.42871094 C25.15429688 130.03779297 24.26806641 130.646875 23.35498047 131.27441406 C22.56502686 131.82911377 21.77507324 132.38381348 20.96118164 132.95532227 C18.300528 134.32832073 16.57726883 134.40280825 13.62451172 134.16113281 C13.50333984 132.87335938 13.38216797 131.58558594 13.25732422 130.25878906 C13.08854307 128.58035433 12.91924559 126.90197147 12.74951172 125.22363281 C12.67087891 124.37349609 12.59224609 123.52335937 12.51123047 122.64746094 C12.42744141 121.83857422 12.34365234 121.0296875 12.25732422 120.19628906 C12.18400879 119.44742432 12.11069336 118.69855957 12.03515625 117.92700195 C11.83188721 117.05289673 11.83188721 117.05289673 11.62451172 116.16113281 C8.34353661 114.52064526 4.67528412 114.8666326 1.06201172 114.72363281 C-10.71565817 114.13509688 -19.97136303 112.90201621 -28.62548828 104.16113281 C-35.98681311 95.01463656 -36.52426337 81.6243894 -36.57861328 70.37988281 C-36.58716339 68.98316345 -36.58716339 68.98316345 -36.59588623 67.55822754 C-36.60529827 65.59156414 -36.61185504 63.62488524 -36.61572266 61.65820312 C-36.62536832 58.69794974 -36.65640347 55.73840941 -36.68798828 52.77832031 C-36.86851917 20.58392708 -36.86851917 20.58392708 -26.52001953 9.10253906 C-18.64875346 1.77936889 -10.61075405 0.05647607 0 0 Z M-3.05322266 23.80053711 C-4.19287476 23.91447311 -5.33252686 24.02840912 -6.50671387 24.14579773 C-9.65204199 24.92531517 -9.65204199 24.92531517 -11.22831726 28.10601807 C-13.52055809 34.21065167 -13.53581028 39.82514909 -13.54345703 46.28222656 C-13.54678543 47.2597438 -13.55011383 48.23726105 -13.55354309 49.24440002 C-13.55859639 51.30786673 -13.56095191 53.37134157 -13.56079102 55.43481445 C-13.56297809 58.58395896 -13.58115248 61.73275333 -13.60009766 64.88183594 C-13.60303182 66.89029829 -13.60501646 68.89876229 -13.60595703 70.90722656 C-13.61314255 71.84489365 -13.62032806 72.78256073 -13.62773132 73.74864197 C-13.60843606 79.29484477 -13.44130963 84.3083319 -10.06298828 88.97363281 C-5.30472893 92.32203754 1.87882735 91.46098904 7.44482422 91.68457031 C10.62451172 92.16113281 10.62451172 92.16113281 12.51123047 93.18847656 C14.30979838 96.37541269 14.20277554 99.77504914 14.31201172 103.34863281 C14.36325195 104.47301758 14.36325195 104.47301758 14.41552734 105.62011719 C14.49785466 107.46660119 14.56286452 109.31384275 14.62451172 111.16113281 C18.26944138 110.51971849 20.71995073 108.95065199 23.76513672 106.88769531 C24.75384766 106.22769531 25.74255859 105.56769531 26.76123047 104.88769531 C28.82239539 103.49634434 30.88231077 102.10314033 32.94091797 100.70800781 C41.02892325 95.31600429 47.3179436 91.91734773 57.24951172 91.59863281 C65.48180181 91.40255837 65.48180181 91.40255837 72.43701172 87.47363281 C75.23479541 82.0253172 74.79486137 75.37820803 74.82763672 69.36816406 C74.83333679 68.54088303 74.83903687 67.71360199 74.84490967 66.86125183 C74.85431069 65.11739358 74.86087403 63.37351796 74.86474609 61.62963867 C74.87442016 58.99853515 74.90547714 56.36822443 74.93701172 53.73730469 C75.44839965 38.91717397 75.44839965 38.91717397 70.39501953 25.41430664 C66.57412519 22.7098595 61.37610072 23.03360147 56.84130859 23.01586914 C55.16796448 23.00629936 55.16796448 23.00629936 53.46081543 22.99653625 C52.26702271 22.99542343 51.07322998 22.99431061 49.84326172 22.99316406 C48.59758423 22.98983566 47.35190674 22.98650726 46.06848145 22.983078 C43.43249946 22.97802053 40.79662059 22.97523591 38.16064453 22.97583008 C34.16675218 22.97595083 30.17304626 22.95552061 26.17919922 22.93652344 C23.60888765 22.93358668 21.03857479 22.93160378 18.46826172 22.93066406 C17.29066284 22.92347855 16.11306396 22.91629303 14.89978027 22.90888977 C8.88721415 22.92510538 2.92965636 23.18846868 -3.05322266 23.80053711 Z " fill="#0067FF" transform="translate(36.37548828125,-0.1611328125)"/>
<path d="M0 0 C4.73640781 0.49939927 9.13237249 1.21133992 13.73022461 2.51171875 C25.7720184 5.90030386 36.05634804 5.69951457 48.08959961 2.3359375 C52.42488474 1.16193674 55.64401157 0.81970972 60 2 C62.52737004 3.91731521 62.9716847 4.91505409 64 8 C64.34253849 13.30934666 64.54241898 16.74909723 61 21 C48.86532563 30.10990217 32.47246274 30.20762766 17.95703125 28.6796875 C11.75475456 27.62193489 4.97677835 25.72927094 0.26171875 21.40625 C-1.63952684 17.7803451 -1.35811501 14.40228404 -1.25 10.375 C-1.24484375 9.59898438 -1.2396875 8.82296875 -1.234375 8.0234375 C-1.15502232 2.31004464 -1.15502232 2.31004464 0 0 Z " fill="#0067FF" transform="translate(36,49)"/>
</svg>
